<svg width="164" height="23" viewBox="0 0 164 23" fill="none" xmlns="http://www.w3.org/2000/svg">
<path d="M16.4926 11.472C17.716 11.8731 18.6862 12.5488 19.4033 13.4989C20.1205 14.4279 20.4791 15.5892 20.4791 16.9827C20.4791 18.9041 19.7408 20.3926 18.2644 21.4483C16.7879 22.4829 14.6365 23.0002 11.8101 23.0002H0.799805V0.830566H11.1773C13.7928 0.830566 15.8071 1.34786 17.2203 2.38244C18.6335 3.3959 19.3401 4.79998 19.3401 6.59466C19.3401 7.69258 19.087 8.66382 18.5807 9.50838C18.0745 10.3529 17.3785 11.0075 16.4926 11.472ZM4.91283 4.06099V10.1735H10.7344C12.1686 10.1735 13.2654 9.9201 14.0248 9.41336C14.8052 8.88552 15.1954 8.12542 15.1954 7.13306C15.1954 6.1196 14.8052 5.3595 14.0248 4.85276C13.2654 4.32491 12.1686 4.06099 10.7344 4.06099H4.91283ZM11.557 19.7697C14.7419 19.7697 16.3344 18.7035 16.3344 16.571C16.3344 14.4385 14.7419 13.3722 11.557 13.3722H4.91283V19.7697H11.557Z" fill="white"/>
<path d="M29.2981 0.830566H33.4111V19.5164H44.9909V23.0002H29.2981V0.830566Z" fill="white"/>
<path d="M52.6675 0.830566H56.7805V23.0002H52.6675V0.830566Z" fill="white"/>
<path d="M71.6929 4.31436H64.3528V0.830566H83.1461V4.31436H75.806V23.0002H71.6929V4.31436Z" fill="white"/>
<path d="M107.874 19.5164V23.0002H88.9855V20.2448L102.021 4.31436H89.2069V0.830566H107.462V3.58593L94.4273 19.5164H107.874Z" fill="white"/>
<path d="M130.435 17.8695H119.361L117.178 23.0002H112.939L122.905 0.830566H126.955L136.952 23.0002H132.65L130.435 17.8695ZM129.074 14.6391L124.898 4.94777L120.753 14.6391H129.074Z" fill="white"/>
<path d="M158.689 23.0002L154.165 16.5076C153.975 16.5287 153.69 16.5393 153.31 16.5393H148.311V23.0002H144.198V0.830566H153.31C155.23 0.830566 156.896 1.14728 158.309 1.78069C159.744 2.41411 160.84 3.32201 161.6 4.50438C162.359 5.68676 162.739 7.09084 162.739 8.7166C162.739 10.3846 162.327 11.8203 161.505 13.0238C160.703 14.2273 159.543 15.1247 158.025 15.7159L163.118 23.0002H158.689ZM158.594 8.7166C158.594 7.30197 158.13 6.21461 157.202 5.45451C156.274 4.69441 154.913 4.31436 153.121 4.31436H148.311V13.1505H153.121C154.913 13.1505 156.274 12.7705 157.202 12.0104C158.13 11.2292 158.594 10.1312 158.594 8.7166Z" fill="white"/>
</svg>
