<svg width="94" height="96" viewBox="0 0 94 96" fill="none" xmlns="http://www.w3.org/2000/svg">
<path d="M44.5347 0.54776H44.2704L44.1216 0.766177L1.38663 63.4719L1.2998 63.5993V63.7535V66.6029V67.1029H1.7998H22.023L15.8356 93.9354L15.6944 94.5478H16.3229H35.3913H35.6272L35.7772 94.3657L86.0566 33.3473L86.7306 32.5293H85.6708H59.2828L66.9397 2.63596L67.0681 2.13462L66.5626 2.02354C62.0777 1.03796 56.9302 0.54776 51.1244 0.54776H44.5347ZM42.3565 43.5112H59.9156L30.342 81.1186L39.4476 55.6551L39.6866 54.9868H38.9768H24.6776L48.4021 17.6031L41.8724 42.8862L41.711 43.5112H42.3565ZM41.6723 1.32934L42.205 0.54776H41.2592H1.7998H1.2998V1.04776V58.9472V60.5687L2.21298 59.2287L41.6723 1.32934ZM1.7998 68.822H1.2998V69.322V94.0478V94.5478H1.7998H13.55H13.9479L14.0373 94.1601L19.7388 69.4344L19.88 68.822H19.2516H1.7998ZM38.5148 93.7298L37.8408 94.5478H38.9007H53.7621C66.469 94.5478 76.254 92.3276 83.0529 87.8217L83.0566 87.8191C89.878 83.2079 93.2998 76.7189 93.2998 68.4063C93.2998 62.8186 91.7767 58.0139 88.7125 54.0191C86.1351 50.6591 82.6696 47.9858 78.3328 45.9926L77.983 45.8318L77.7381 46.1289L38.5148 93.7298ZM87.9302 30.8102H88.3328L88.4187 30.4168C88.7718 28.7993 88.9476 27.1136 88.9476 25.3606C88.9476 17.8369 85.6952 11.7983 79.24 7.28193C76.4681 5.3157 73.1223 3.78601 69.2125 2.68518L68.7196 2.54643L68.5926 3.04241L61.64 30.1861L61.4802 30.8102H62.1244H87.9302Z" stroke="white"/>
</svg>
