<svg width="196" height="22" viewBox="0 0 196 22" fill="none" xmlns="http://www.w3.org/2000/svg">
<path d="M9.48351 0.878418C11.3171 0.878418 12.909 1.18016 14.259 1.78363C15.6292 2.3871 16.677 3.25208 17.4024 4.37857C18.1278 5.50505 18.4904 6.84275 18.4904 8.39167C18.4904 9.92047 18.1278 11.2582 17.4024 12.4048C16.677 13.5313 15.6292 14.3962 14.259 14.9997C12.909 15.6032 11.3171 15.9049 9.48351 15.9049H4.70801V22H0.778809V0.878418H9.48351ZM9.30216 12.5858C11.0149 12.5858 12.3145 12.2237 13.2011 11.4996C14.0877 10.7754 14.531 9.73943 14.531 8.39167C14.531 7.04391 14.0877 6.00795 13.2011 5.28378C12.3145 4.55961 11.0149 4.19753 9.30216 4.19753H4.70801V12.5858H9.30216Z" fill="white"/>
<path d="M26.6457 0.878418H30.5749V18.6809H41.6371V22H26.6457V0.878418Z" fill="white"/>
<path d="M62.8402 17.1119H52.2615L50.176 22H46.1259L55.6467 0.878418H59.5154L69.0664 22H64.9559L62.8402 17.1119ZM61.5405 14.0342L57.5508 4.801L53.5914 14.0342H61.5405Z" fill="white"/>
<path d="M94.7883 0.878418V22H91.5543L79.8876 7.69768V22H75.9886V0.878418H79.2226L90.8893 15.1808V0.878418H94.7883Z" fill="white"/>
<path d="M120.557 18.7111V22H104.689V0.878418H120.134V4.16735H108.618V9.65897H118.834V12.8876H108.618V18.7111H120.557Z" fill="white"/>
<path d="M133.461 4.19753H126.448V0.878418H144.402V4.19753H137.39V22H133.461V4.19753Z" fill="white"/>
<path d="M164.241 17.1119H153.663L151.577 22H147.527L157.048 0.878418H160.917L170.468 22H166.357L164.241 17.1119ZM162.942 14.0342L158.952 4.801L154.993 14.0342H162.942Z" fill="white"/>
<path d="M191.233 22L186.911 15.8144C186.729 15.8345 186.457 15.8446 186.095 15.8446H181.319V22H177.39V0.878418H186.095C187.928 0.878418 189.52 1.18016 190.87 1.78363C192.24 2.3871 193.288 3.25208 194.013 4.37857C194.739 5.50505 195.102 6.84275 195.102 8.39167C195.102 9.98082 194.709 11.3487 193.923 12.4953C193.157 13.6419 192.049 14.4968 190.598 15.0601L195.464 22H191.233ZM191.142 8.39167C191.142 7.04391 190.699 6.00795 189.812 5.28378C188.926 4.55961 187.626 4.19753 185.913 4.19753H181.319V12.616H185.913C187.626 12.616 188.926 12.2539 189.812 11.5297C190.699 10.7855 191.142 9.73943 191.142 8.39167Z" fill="white"/>
</svg>
