<svg viewBox="0 0 102 100" xmlns="http://www.w3.org/2000/svg" fill-rule="evenodd" clip-rule="evenodd" stroke-linejoin="round" stroke-miterlimit="2">
  <path d="M50.9 0C22.794 0 0 22.791 0 50.906c0 22.491 14.584 41.569 34.812 48.3 2.547.469 3.475-1.103 3.475-2.453 0-1.209-.043-4.409-.068-8.656-14.16 3.075-17.147-6.825-17.147-6.825-2.316-5.881-5.653-7.447-5.653-7.447-4.622-3.156.35-3.094.35-3.094 5.109.36 7.797 5.247 7.797 5.247 4.54 7.778 11.915 5.531 14.815 4.228.463-3.287 1.778-5.531 3.231-6.803-11.303-1.284-23.187-5.653-23.187-25.159 0-5.556 1.984-10.103 5.241-13.66-.525-1.287-2.272-6.465.5-13.472 0 0 4.271-1.368 13.996 5.219 4.06-1.131 8.416-1.693 12.744-1.715 4.325.022 8.678.584 12.744 1.715 9.719-6.587 13.984-5.219 13.984-5.219 2.778 7.007 1.032 12.185.51 13.472 3.262 3.557 5.231 8.104 5.231 13.66 0 19.556-11.903 23.859-23.241 25.118 1.825 1.572 3.453 4.679 3.453 9.426 0 6.806-.062 12.296-.062 13.965 0 1.363.919 2.947 3.5 2.45 20.212-6.747 34.784-25.812 34.784-48.297C101.809 22.791 79.016 0 50.9 0z" fill="#fff"/>
</svg>