          <svg
            data-name="Layer 2"
            xmlns="http://www.w3.org/2000/svg"
            width="547.364"
            height="413.724"
          >
            <g data-name="Layer 1" fill="#fff">
              <path
                data-name="Path 119"
                d="M199.775 171.119v30.093H169.7v-30.093h-25.468v30.093H114.16v-30.093H86.389V87.826h27.771V60.054h83.293v27.772h54.305V0H0v261.267h251.759v-90.148z"
              />
              <path
                data-name="Rectangle 19"
                d="M197.454 114.824h27.772v27.772h-27.772z"
              />
              <path
                data-name="Rectangle 20"
                d="M144.254 114.824h27.772v27.772h-27.772z"
              />
              <path
                data-name="Path 120"
                d="M346.041 261.779v-104.5h-50.347V.509h100.695v104.52h50.259V.509h100.716v156.77h-50.281v104.5z"
              />
              <path
                data-name="Path 121"
                d="M1.548 413.658v-92.536h92.558v18.507H38.562v55.521h55.544v18.507z"
              />
              <path
                data-name="Path 122"
                d="M112.613 413.658v-92.536h92.558v55.521h-18.529v18.507h18.529v18.507h-37.125V395.15h-18.419v18.507zm55.433-37.014v-37.015h-18.419v37.014z"
              />
              <path
                data-name="Path 123"
                d="M223.678 413.658v-92.536h92.514v92.536h-36.993V395.15h-18.507v18.507zm55.521-37.014v-37.015h-18.507v37.014z"
              />
              <path
                data-name="Path 124"
                d="M334.742 413.658v-92.536H427.3v18.507h-55.548v18.573h37.014v18.507h-37.014v37.014z"
              />
              <path
                data-name="Path 125"
                d="M464.336 413.658v-74.029h-18.507v-18.507h92.558v18.507h-18.552v74.029z"
              />
            </g>
          </svg>