<svg xmlns="http://www.w3.org/2000/svg" viewBox="0 0 247.59 187.08" style="fill: white"><title>CyCraft</title><polygon points="90.35 77.39 90.35 91 76.75 91 76.75 77.39 65.23 77.39 65.23 91 51.63 91 51.63 77.39 39.07 77.39 39.07 39.72 51.63 39.72 51.63 27.16 89.3 27.16 89.3 39.72 113.86 39.72 113.86 0 0 0 0 118.16 113.86 118.16 113.86 77.39 90.35 77.39"/><rect x="89.3" y="51.93" width="12.56" height="12.56"/><rect x="65.24" y="51.93" width="12.56" height="12.56"/><path d="M156.5,118.39V71.13H133.73V.23h45.54V47.5H202V.23h45.55v70.9H224.81v47.26Z"/><path d="M.7,187.08V145.23H42.56v8.37H17.44v25.11H42.56v8.37Z"/><path d="M50.93,187.08V145.23H92.79v25.11H84.41v8.37h8.38v8.37H76v-8.37H67.67v8.37ZM76,170.34V153.6H67.67v16.74Z"/><path d="M101.16,187.08V145.23H143v41.85H126.27v-8.37H117.9v8.37Zm25.11-16.74V153.6H117.9v16.74Z"/><path d="M151.39,187.08V145.23h41.86v8.37H168.13V162h16.74v8.37H168.13v16.74Z"/><path d="M210,187.08V153.6h-8.37v-8.37h41.86v8.37H235.1v33.48Z"/></svg>