<svg
  class="mt-6"
  width="217"
  height="24"
  viewBox="0 0 217 24"
  fill="none"
  xmlns="http://www.w3.org/2000/svg"
>
  <path
    d="M20.3427 23.0064L20.3111 8.3267L13.0345 20.4754H11.1996L3.92301 8.51652V23.0064H0V0.860317H3.38518L12.1803 15.54L20.8173 0.860317H24.2025L24.2341 23.0064H20.3427Z"
    fill="white"
  />
  <path
    d="M49.0085 17.8811H37.9355L35.7525 23.0064H31.5131L41.4788 0.860317H45.5284L55.5258 23.0064H51.2231L49.0085 17.8811ZM47.6481 14.6541L43.472 4.97315L39.3275 14.6541H47.6481Z"
    fill="white"
  />
  <path
    d="M77.585 11.6802H81.4764V20.507C80.3375 21.414 79.0087 22.11 77.4901 22.5951C75.9715 23.0802 74.4108 23.3227 72.8078 23.3227C70.551 23.3227 68.5157 22.8376 66.7019 21.8674C64.888 20.8761 63.4643 19.5157 62.4308 17.7862C61.3973 16.0567 60.8806 14.1058 60.8806 11.9333C60.8806 9.76092 61.3973 7.80996 62.4308 6.08046C63.4643 4.35096 64.888 3.0011 66.7019 2.03089C68.5368 1.03959 70.5932 0.543945 72.8711 0.543945C74.7271 0.543945 76.4145 0.849771 77.9331 1.46142C79.4516 2.07308 80.7277 2.96946 81.7612 4.15059L79.1669 6.68156C77.4796 4.99425 75.4443 4.15059 73.0609 4.15059C71.5002 4.15059 70.1081 4.47751 68.8848 5.13134C67.6826 5.78518 66.7335 6.70265 66.0375 7.88378C65.3625 9.0649 65.0251 10.4148 65.0251 11.9333C65.0251 13.4097 65.3625 14.7385 66.0375 15.9196C66.7335 17.1007 67.6826 18.0288 68.8848 18.7037C70.1081 19.3786 71.4896 19.7161 73.0293 19.7161C74.7588 19.7161 76.2774 19.3364 77.585 18.5772V11.6802Z"
    fill="white"
  />
  <path
    d="M111.009 0.860317V23.0064H107.623L95.4114 8.01032V23.0064H91.3302V0.860317H94.7154L106.927 15.8564V0.860317H111.009Z"
    fill="white"
  />
  <path
    d="M137.981 19.5579V23.0064H121.372V0.860317H137.539V4.30877H125.485V10.0667H136.178V13.4519H125.485V19.5579H137.981Z"
    fill="white"
  />
  <path
    d="M151.488 4.34041H144.148V0.860317H162.941V4.34041H155.601V23.0064H151.488V4.34041Z"
    fill="white"
  />
  <path
    d="M183.708 17.8811H172.635L170.452 23.0064H166.212L176.178 0.860317H180.227L190.225 23.0064H185.922L183.708 17.8811ZM182.347 14.6541L178.171 4.97315L174.027 14.6541H182.347Z"
    fill="white"
  />
  <path
    d="M211.96 23.0064L207.436 16.5207C207.246 16.5418 206.962 16.5524 206.582 16.5524H201.583V23.0064H197.471V0.860317H206.582C208.501 0.860317 210.168 1.17669 211.581 1.80943C213.015 2.44218 214.112 3.34911 214.871 4.53023C215.63 5.71136 216.01 7.11394 216.01 8.73798C216.01 10.4042 215.599 11.8384 214.776 13.0406C213.975 14.2429 212.815 15.1392 211.296 15.7298L216.39 23.0064H211.96ZM211.865 8.73798C211.865 7.32485 211.401 6.23864 210.473 5.47935C209.545 4.72006 208.185 4.34041 206.392 4.34041H201.583V13.1672H206.392C208.185 13.1672 209.545 12.7875 210.473 12.0282C211.401 11.2479 211.865 10.1511 211.865 8.73798Z"
    fill="white"
  />
</svg>