<svg xmlns="http://www.w3.org/2000/svg" width="232" height="232"><path d="M95.306 2.485C47.948 11.076 10.66 48.781 2.348 96.484.027 109.805.946 132.25 4.347 145.277c10.345 39.633 42.743 72.031 82.376 82.376 13.027 3.401 35.472 4.32 48.793 1.999 48.275-8.412 86.253-46.447 94.012-94.152 6.074-37.348-5.793-74.794-32.014-101.014-16.692-16.693-39.167-28.313-61.889-31.998-11.02-1.787-30.473-1.789-40.319-.003M71 67v12H47v72h24v26h26v-26h22v26h26v-26h46V79h-48V55H71v12m26 50v12h24v-24H97v12m46 0v12h25v-24h-25v12" fill="undefined" fill-rule="evenodd"/></svg>