<svg
  width="179"
  height="181"
  viewBox="0 0 179 181"
  fill="none"
  xmlns="http://www.w3.org/2000/svg"
>
  <path
    fill-rule="evenodd"
    clip-rule="evenodd"
    d="M84.3291 0H97.1942C108.476 0 118.453 0.947403 127.125 2.84221L111.864 62.0835H164.639L66.4785 180.534H29.2512L41.6065 127.257H0.897949V121.726L84.3291 0ZM43.7865 105.678L94.3727 26.4196L80.0766 81.4605H116.367L53.6838 160.719L73.4784 105.678H43.7865Z"
    fill="white"
  />
  <path
    d="M77.9342 0H0.897949V112.396L77.9342 0Z"
    fill="white"
  />
  <path
    d="M0.897949 132.536V180.534H23.8379L34.969 132.536H0.897949Z"
    fill="white"
  />
  <path
    d="M73.3298 180.534H102.344C127.061 180.534 145.943 176.236 158.989 167.639C172.034 158.87 178.557 146.576 178.557 130.758C178.557 120.098 175.639 110.985 169.803 103.42C164.88 97.039 158.247 91.9423 149.905 88.13L73.3298 180.534Z"
    fill="white"
  />
  <path
    d="M169.05 56.805H118.669L132.243 4.1129C139.791 6.22607 146.217 9.15353 151.522 12.8953C163.881 21.4922 170.06 32.926 170.06 47.1967C170.06 50.5344 169.723 53.7372 169.05 56.805Z"
    fill="white"
  />
</svg>
