<svg width="214" height="181" viewBox="0 0 214 181" fill="none" xmlns="http://www.w3.org/2000/svg">
<path d="M158.895 117.291L158.896 117.4C165.048 116.002 171.051 114.284 176.699 112.208C196.273 105.012 210.756 93.8711 213.598 77.4795L213.562 64.7556C210.797 48.1546 197.728 35.6974 179.309 27.0429C171.422 23.3373 162.647 20.3811 153.468 18.1393L139.995 41.1024C149.232 42.8052 158.152 45.2713 166.055 48.5639C183.082 55.6577 196.346 67.0509 196.346 83.7503C196.346 92.2327 192.243 99.025 185.962 104.323C179.736 109.574 171.267 113.464 162.106 116.334C161.047 116.666 159.976 116.985 158.895 117.291Z" fill="white"/>
<path d="M107.332 138.413C114.344 138.413 120.29 133.851 122.364 127.533C129.082 127.667 135.014 127.667 141.605 127.667L120.174 164.111H93.7617L71.473 127.667C78.3309 127.667 85.5811 127.667 92.3199 127.595C94.4128 133.881 100.343 138.413 107.332 138.413Z" fill="white"/>
<path d="M72.6721 116.562C79.2739 117.583 85.8838 118.203 92.0431 118.518C93.8409 111.757 100.005 106.776 107.332 106.776C114.504 106.776 120.561 111.549 122.5 118.092C128.22 117.654 134.331 116.96 140.464 115.948C144.359 114.501 147.699 112.741 150.171 110.651C153.175 108.113 154.788 105.203 154.788 101.741C154.788 94.5543 149.133 88.8885 139.564 84.8947C133.091 82.193 125.258 80.467 117.379 79.65L107.73 96.0966L97.6653 79.3936C88.6596 80.0088 80.003 81.5974 73.1103 84.4266C63.9325 88.1936 58.5577 93.8134 58.5577 101.741C58.5577 105.582 60.2294 108.684 63.2075 111.288C65.6259 113.402 68.8775 115.151 72.6721 116.562Z" fill="white"/>
<path d="M159.285 180.342L158.988 132.335C159.631 132.529 160.27 132.727 160.904 132.931C169.799 135.781 177.582 139.516 183.096 144.273C188.553 148.981 191.698 154.592 191.698 161.394C191.698 168.653 188.76 174.963 183.579 180.342H159.285Z" fill="white"/>
<path d="M196.97 161.394C196.97 168.655 194.577 174.946 190.51 180.342H213.888L213.818 155.547C212.392 153.75 210.765 152.043 208.957 150.418C201.522 143.737 191.086 138.535 179.246 134.584C178.461 134.322 177.67 134.065 176.875 133.815C180.458 135.709 183.727 137.854 186.54 140.281C192.864 145.736 196.97 152.708 196.97 161.394Z" fill="white"/>
<path d="M158.936 123.825C166.426 125.333 173.869 127.23 180.915 129.582C193.106 133.651 204.297 139.142 212.481 146.496C212.928 146.898 213.367 147.305 213.796 147.719L213.639 92.0016C206.488 103.595 193.384 111.692 178.519 117.157C172.296 119.444 165.683 121.306 158.929 122.796L158.936 123.825Z" fill="white"/>
<path d="M0.556152 180.342H23.2387C19.7131 174.986 17.693 168.706 17.693 161.394C17.693 152.217 21.7422 144.912 28.0898 139.247C30.8899 136.748 34.141 134.562 37.7038 132.651C37.3731 132.755 37.0434 132.861 36.7145 132.967C20.6889 138.167 7.48915 145.792 0.556152 156.624V180.342Z" fill="white"/>
<path d="M54.6165 122.973C48.8312 121.725 43.1278 120.193 37.6826 118.327C21.9496 112.935 7.86055 104.55 0.556152 91.8239V147.989C8.93863 138.803 21.4833 132.366 35.0871 127.952C41.3653 125.915 47.9573 124.275 54.6165 122.973Z" fill="white"/>
<path d="M22.9658 161.394C22.9658 168.81 25.4125 175.083 29.8079 180.342H55.1589V131.33C54.6833 131.471 54.21 131.615 53.7394 131.762C44.8617 134.527 37.1006 138.272 31.6008 143.181C26.1668 148.031 22.9658 153.977 22.9658 161.394Z" fill="white"/>
<path d="M28.6679 105.326C33.8173 109.82 40.4993 113.271 47.835 115.91C44.9645 115.136 42.1418 114.281 39.392 113.339C17.0267 105.674 0.556152 92.6872 0.556152 71.4464C0.556152 49.813 13.7408 35.2255 33.9242 25.8995C41.8414 22.2413 50.7753 19.4296 60.287 17.3614L74.2962 40.6109C64.6423 42.1527 55.4941 44.4798 47.5058 47.7525C30.6785 54.6466 18.3173 66.0857 18.3173 83.7503C18.3173 92.7066 22.3611 99.8227 28.6679 105.326Z" fill="white"/>
<path d="M31.7125 21.1129C17.9315 27.4806 6.74405 36.4578 0.556152 48.5985V0H49.8256L57.4173 12.5991C48.2202 14.7007 39.5237 17.5037 31.7125 21.1129Z" fill="white"/>
<path d="M181.551 22.2706C173.764 18.6117 165.19 15.6681 156.25 13.3981L164.11 0H213.38L213.518 49.168C206.935 37.6287 195.348 28.753 181.551 22.2706Z" fill="white"/>
<path d="M94.6232 74.345C86.1665 75.1063 77.9464 76.7418 71.1081 79.5486C61.0354 83.683 53.2848 90.7057 53.2848 101.741C53.2848 104.651 53.9654 107.25 55.1589 109.551V112.75C54.8091 112.647 54.4607 112.543 54.1136 112.437C45.296 109.752 37.5914 106.115 32.1348 101.353C26.7446 96.6497 23.5902 90.9018 23.5902 83.7503C23.5902 69.199 33.5682 59.1609 49.5048 52.6318C57.633 49.3017 67.1342 46.975 77.239 45.4947L94.6232 74.345Z" fill="white"/>
<path d="M120.296 74.6779C127.797 75.6241 135.235 77.3739 141.595 80.0287C151.715 84.2524 160.06 91.229 160.06 101.741C160.06 103.949 159.621 105.97 158.837 107.812L158.861 111.811C159.421 111.645 159.977 111.476 160.53 111.303C169.364 108.535 177.091 104.908 182.562 100.293C187.978 95.7248 191.073 90.3019 191.073 83.7503C191.073 70.3816 180.508 60.2975 164.027 53.4312C155.975 50.0768 146.738 47.6005 137.15 45.9514L120.296 74.6779Z" fill="white"/>
</svg>
