<svg
  width="231"
  height="183"
  viewBox="0 0 231 183"
  fill="none"
  xmlns="http://www.w3.org/2000/svg"
>
  <path
    fill-rule="evenodd"
    clip-rule="evenodd"
    d="M206.728 103.76C206.728 103.76 207.602 104.504 208.255 105.233C216.421 114.355 220.796 121.385 223.71 128.307C226.674 135.351 226.428 139.952 224.735 142.764C223.041 145.576 219.086 147.951 211.464 148.641C203.974 149.319 193.999 148.238 182.1 145.316C174.342 143.412 165.889 140.756 156.94 137.394C161.94 136.215 166.657 134.649 171.122 132.664C182.91 127.422 191.996 119.887 198.381 110.058C199.867 107.771 201.81 104.339 202.95 101.875C184.122 81.4796 152.334 61.157 121.287 44.0139C92.5986 28.1735 64.4429 14.8876 46.7897 10.6426V72.2786C38.0488 64.8465 30.453 57.522 24.2172 50.5562C16.0517 41.4347 10.4168 33.1475 7.50345 26.2248C4.53931 19.1814 4.78527 14.5801 6.4787 11.7682C8.17212 8.95624 12.1274 6.58127 19.7488 5.89126C25.3537 5.38381 32.349 5.86146 40.5008 7.35792L41.2559 2.38327C21.5466 -1.21096 7.24178 0.741005 2.16143 9.17698C-6.16968 23.0109 12.5596 50.5382 46.7897 78.8458V182.966H104.72V140.22H129.907C136.134 140.22 142.001 139.865 147.544 139.116C188.152 155.647 220.792 159.07 229.052 145.355C235.106 135.302 226.709 118.292 208.617 98.7314L206.728 103.76ZM85.9541 78.7157C85.8802 78.3889 85.4138 78.3889 85.3399 78.7157L81.9062 93.8911C81.8583 94.1029 81.6149 94.2035 81.431 94.0876L68.2543 85.7809C67.9706 85.602 67.6408 85.9312 67.8199 86.2144L76.1407 99.369C76.2569 99.5525 76.156 99.7955 75.9439 99.8434L60.7428 103.271C60.4155 103.345 60.4155 103.811 60.7428 103.884L75.9439 107.312C76.156 107.36 76.2569 107.603 76.1407 107.787L67.8199 120.941C67.6408 121.225 67.9706 121.554 68.2543 121.375L81.431 113.068C81.6149 112.952 81.8583 113.053 81.9062 113.265L85.3399 128.44C85.4138 128.767 85.8802 128.767 85.9541 128.44L89.3878 113.265C89.4357 113.053 89.6792 112.952 89.863 113.068L103.04 121.375C103.323 121.554 103.653 121.225 103.474 120.941L95.1533 107.787C95.0372 107.603 95.138 107.36 95.3501 107.312L110.551 103.884C110.878 103.811 110.878 103.345 110.551 103.271L95.3501 99.8434C95.138 99.7955 95.0372 99.5525 95.1533 99.369L103.474 86.2144C103.653 85.9312 103.323 85.602 103.04 85.7809L89.863 94.0876C89.6791 94.2035 89.4357 94.1029 89.3878 93.8911L85.9541 78.7157Z"
    fill="white"
  />
  <path
    d="M64.3955 10.7249H129.551C145.432 10.7249 159.267 13.3459 171.055 18.5878C182.842 23.8297 191.929 31.3649 198.314 41.1934C204.699 51.022 207.892 62.4886 207.892 75.5933C207.892 83.054 206.857 89.9837 204.788 96.3824C185.128 75.9389 154.409 55.0907 124.267 38.4479C102.923 26.6626 81.5913 16.8338 64.3955 10.7249Z"
    fill="white"
  />
</svg>
